<?xml version="1.0" encoding="utf-8"?>
<!-- Generator: Adobe Illustrator 26.0.1, SVG Export Plug-In . SVG Version: 6.00 Build 0)  -->
<svg version="1.1" xmlns="http://www.w3.org/2000/svg" xmlns:xlink="http://www.w3.org/1999/xlink" x="0px" y="0px"
	 viewBox="0 0 500 500" style="enable-background:new 0 0 500 500;" xml:space="preserve">
<style type="text/css">
	.st0{display:none;}
	.st1{display:inline;}
	.st2{fill:#407BFF;}
	.st3{opacity:0.9;fill:#FFFFFF;}
	.st4{fill:#F5F5F5;}
	.st5{opacity:0.2;}
	.st6{fill:#263238;}
	.st7{opacity:0.3;fill:#407BFF;}
	.st8{opacity:0.3;}
	.st9{opacity:0.3;fill:#FFFFFF;}
	.st10{opacity:0.4;fill:#263238;}
	.st11{fill:#FFC3BD;}
	.st12{opacity:0.8;fill:#FFFFFF;}
	.st13{fill:#FFFFFF;}
	.st14{fill:#ED847E;}
</style>
<g id="Background_Complete">
</g>
<g id="Background_Simple" class="st0">
	<g class="st1">
		<path class="st2" d="M400.85,198.24c17.23,18.33,27.76,43.21,25.85,68.19c-2.44,31.81-27.79,64.47-61.73,63.11
			c-14.85-0.59-29.02-6.01-43.03-10.96c-21.14-7.48-42.75-14.09-65.02-16.74c-21.19-2.52-42.36,3.42-63.24,6.43
			c-17.79,2.56-36.2,3.65-53.51-1.2c-40.74-11.42-68.41-62.19-67.04-102.47c1.52-44.58,32.59-82.92,76.74-91.17
			c20.81-3.89,42.9-0.59,61.68,9.2c24,12.52,45.1,40.77,74.26,41.23c18.64,0.29,33.8-3.64,52.51,0.54
			c19.4,4.33,38.09,12.56,53.46,25.3C394.96,192.36,398,195.21,400.85,198.24z"/>
		<path class="st3" d="M400.85,198.24c17.23,18.33,27.76,43.21,25.85,68.19c-2.44,31.81-27.79,64.47-61.73,63.11
			c-14.85-0.59-29.02-6.01-43.03-10.96c-21.14-7.48-42.75-14.09-65.02-16.74c-21.19-2.52-42.36,3.42-63.24,6.43
			c-17.79,2.56-36.2,3.65-53.51-1.2c-40.74-11.42-68.41-62.19-67.04-102.47c1.52-44.58,32.59-82.92,76.74-91.17
			c20.81-3.89,42.9-0.59,61.68,9.2c24,12.52,45.1,40.77,74.26,41.23c18.64,0.29,33.8-3.64,52.51,0.54
			c19.4,4.33,38.09,12.56,53.46,25.3C394.96,192.36,398,195.21,400.85,198.24z"/>
	</g>
</g>
<g id="Shadow_1_">
</g>
<g id="Books">
</g>
<g id="Character_1_">
	<g>
		<ellipse id="_x3C_Path_x3E__12_" class="st4" cx="250" cy="386.89" rx="193.89" ry="11.32"/>
		<g>
			<g>
				<g>
					<g>
						<path class="st2" d="M187.69,337h199.93c2.14,0,3.88,1.74,3.88,3.88v42.38c0,2.14-1.74,3.88-3.88,3.88H187.69V337z"/>
						<path class="st5" d="M187.69,337h199.93c2.14,0,3.88,1.74,3.88,3.88v42.38c0,2.14-1.74,3.88-3.88,3.88H187.69V337z"/>
					</g>
					
						<rect x="236.7" y="337" transform="matrix(-1 -1.224647e-16 1.224647e-16 -1 503.9948 724.1419)" class="st5" width="30.59" height="50.14"/>
					
						<rect x="280.44" y="337" transform="matrix(-1 -1.224647e-16 1.224647e-16 -1 576.3851 724.1419)" class="st5" width="15.51" height="50.14"/>
					<path class="st2" d="M187.69,337h-66.22c-2.15,0-3.9,1.75-3.9,3.9v42.33c0,2.15,1.75,3.9,3.9,3.9h66.22V337z"/>
					<path class="st3" d="M175.49,342.39h-57.93v39.36h57.93c2.81,0,5.09-2.28,5.09-5.09v-29.19
						C180.58,344.67,178.3,342.39,175.49,342.39z"/>
					<circle class="st5" cx="363.49" cy="362.07" r="14.34"/>
				</g>
				<g>
					<g>
						<path class="st6" d="M202.15,300.61h199.94c2.14,0,3.88,1.74,3.88,3.88v28.64c0,2.14-1.74,3.88-3.88,3.88H202.15V300.61z"/>
						<path class="st5" d="M202.15,300.61h199.94c2.14,0,3.88,1.74,3.88,3.88v28.64c0,2.14-1.74,3.88-3.88,3.88H202.15V300.61z"/>
					</g>
					<path class="st6" d="M202.15,300.61h-66.22c-2.15,0-3.9,1.75-3.9,3.9v28.59c0,2.15,1.75,3.9,3.9,3.9h66.22V300.61z"/>
					<path class="st3" d="M189.95,305.99h-57.93v25.62h57.93c2.81,0,5.09-2.28,5.09-5.09v-15.45
						C195.04,308.27,192.76,305.99,189.95,305.99z"/>
					<g>
						<path class="st7" d="M244.02,328.39h139.9c2.32,0,4.19-1.88,4.19-4.19v-10.77c0-2.32-1.88-4.19-4.19-4.19h-139.9
							c-2.32,0-4.19,1.88-4.19,4.19v10.77C239.82,326.51,241.7,328.39,244.02,328.39z"/>
						
							<rect x="209.74" y="300.61" transform="matrix(-1 -1.224647e-16 1.224647e-16 -1 424.7913 637.6113)" class="st7" width="5.31" height="36.39"/>
						
							<rect x="219.44" y="300.61" transform="matrix(-1 -1.224647e-16 1.224647e-16 -1 444.1815 637.6113)" class="st7" width="5.31" height="36.39"/>
					</g>
				</g>
				<g>
					<g>
						<path class="st2" d="M180.04,263.07h199.94c2.14,0,3.88,1.74,3.88,3.88v29.79c0,2.14-1.74,3.88-3.88,3.88H180.04V263.07z"/>
						<path class="st8" d="M180.04,263.07h199.94c2.14,0,3.88,1.74,3.88,3.88v29.79c0,2.14-1.74,3.88-3.88,3.88H180.04V263.07z"/>
					</g>
					
						<rect x="229.05" y="263.07" transform="matrix(-1 -1.224647e-16 1.224647e-16 -1 527.525 563.6747)" class="st3" width="69.42" height="37.54"/>
					
						<rect x="328.29" y="263.07" transform="matrix(-1 -1.224647e-16 1.224647e-16 -1 691.7855 563.6747)" class="st3" width="35.2" height="37.54"/>
					<path class="st2" d="M180.04,263.07h-66.22c-2.15,0-3.9,1.75-3.9,3.9v29.74c0,2.15,1.75,3.9,3.9,3.9h66.22V263.07z"/>
					<path class="st3" d="M167.84,268.45h-57.93v26.77h57.93c2.81,0,5.09-2.28,5.09-5.09v-16.59
						C172.93,270.73,170.65,268.45,167.84,268.45z"/>
				</g>
				<g>
					<g>
						<path class="st2" d="M194.5,238.17h199.93c2.14,0,3.88,1.74,3.88,3.88v17.14c0,2.14-1.74,3.88-3.88,3.88H194.5V238.17z"/>
						<path class="st9" d="M194.5,238.17h199.93c2.14,0,3.88,1.74,3.88,3.88v17.14c0,2.14-1.74,3.88-3.88,3.88H194.5V238.17z"/>
						<path class="st5" d="M194.5,238.17h199.93c2.14,0,3.88,1.74,3.88,3.88v17.14c0,2.14-1.74,3.88-3.88,3.88H194.5V238.17z"/>
					</g>
					<g>
						<path class="st2" d="M194.5,238.17h-66.22c-2.15,0-3.9,1.75-3.9,3.9v17.1c0,2.15,1.75,3.9,3.9,3.9h66.22V238.17z"/>
						<path class="st9" d="M194.5,238.17h-66.22c-2.15,0-3.9,1.75-3.9,3.9v17.1c0,2.15,1.75,3.9,3.9,3.9h66.22V238.17z"/>
					</g>
					<path class="st3" d="M182.3,243.55h-57.93v14.13h57.93c2.81,0,5.09-2.28,5.09-5.09v-3.95
						C187.39,245.83,185.11,243.55,182.3,243.55z"/>
					
						<rect x="212.4" y="244.73" transform="matrix(-1 -1.224647e-16 1.224647e-16 -1 515.414 501.2343)" class="st10" width="90.62" height="11.77"/>
				</g>
			</g>
			<g>
				<g>
					<g>
						<path class="st2" d="M257.49,229.93H228.9c-0.35,0-0.64,0.29-0.64,0.64v6.97c0,0.35,0.29,0.64,0.64,0.64h28.59V229.93z"/>
						<path class="st5" d="M257.49,229.93H228.9c-0.35,0-0.64,0.29-0.64,0.64v6.97c0,0.35,0.29,0.64,0.64,0.64h28.59V229.93z"/>
					</g>
					<path class="st2" d="M257.49,229.93h10.9c0.35,0,0.64,0.29,0.64,0.64v6.97c0,0.35-0.29,0.64-0.64,0.64h-10.9V229.93z"/>
					<path class="st3" d="M259.5,230.82h9.53v6.48h-9.53c-0.46,0-0.84-0.37-0.84-0.84v-4.8
						C258.66,231.19,259.04,230.82,259.5,230.82z"/>
				</g>
				<g>
					<g>
						<path class="st6" d="M255.11,223.94h-28.59c-0.35,0-0.64,0.29-0.64,0.64v4.71c0,0.35,0.29,0.64,0.64,0.64h28.59V223.94z"/>
						<path class="st5" d="M255.11,223.94h-28.59c-0.35,0-0.64,0.29-0.64,0.64v4.71c0,0.35,0.29,0.64,0.64,0.64h28.59V223.94z"/>
					</g>
					<path class="st6" d="M255.11,223.94h10.9c0.35,0,0.64,0.29,0.64,0.64v4.71c0,0.35-0.29,0.64-0.64,0.64h-10.9V223.94z"/>
					<path class="st3" d="M257.12,224.83h9.53v4.22h-9.53c-0.46,0-0.84-0.37-0.84-0.84v-2.54
						C256.28,225.2,256.66,224.83,257.12,224.83z"/>
				</g>
				<g>
					<g>
						<path class="st2" d="M258.75,217.77h-28.59c-0.35,0-0.64,0.29-0.64,0.64v4.9c0,0.35,0.29,0.64,0.64,0.64h28.59V217.77z"/>
						<path class="st8" d="M258.75,217.77h-28.59c-0.35,0-0.64,0.29-0.64,0.64v4.9c0,0.35,0.29,0.64,0.64,0.64h28.59V217.77z"/>
					</g>
					<path class="st2" d="M258.75,217.77h10.9c0.35,0,0.64,0.29,0.64,0.64v4.89c0,0.35-0.29,0.64-0.64,0.64h-10.9V217.77z"/>
					<path class="st3" d="M260.76,218.65h9.53v4.41h-9.53c-0.46,0-0.84-0.37-0.84-0.84v-2.73
						C259.92,219.03,260.3,218.65,260.76,218.65z"/>
				</g>
				<g>
					<g>
						<path class="st2" d="M256.37,213.67h-28.59c-0.35,0-0.64,0.29-0.64,0.64v2.82c0,0.35,0.29,0.64,0.64,0.64h28.59V213.67z"/>
						<path class="st9" d="M256.37,213.67h-28.59c-0.35,0-0.64,0.29-0.64,0.64v2.82c0,0.35,0.29,0.64,0.64,0.64h28.59V213.67z"/>
						<path class="st5" d="M256.37,213.67h-28.59c-0.35,0-0.64,0.29-0.64,0.64v2.82c0,0.35,0.29,0.64,0.64,0.64h28.59V213.67z"/>
					</g>
					<g>
						<path class="st2" d="M256.37,213.67h10.9c0.35,0,0.64,0.29,0.64,0.64v2.81c0,0.35-0.29,0.64-0.64,0.64h-10.9V213.67z"/>
						<path class="st9" d="M256.37,213.67h10.9c0.35,0,0.64,0.29,0.64,0.64v2.81c0,0.35-0.29,0.64-0.64,0.64h-10.9V213.67z"/>
					</g>
					<path class="st3" d="M258.38,214.55h9.53v2.32h-9.53c-0.46,0-0.84-0.37-0.84-0.84v-0.65
						C257.54,214.93,257.92,214.55,258.38,214.55z"/>
				</g>
				<g>
					<g>
						<path class="st6" d="M255.11,207.68h-28.59c-0.35,0-0.64,0.29-0.64,0.64v4.71c0,0.35,0.29,0.64,0.64,0.64h28.59V207.68z"/>
						<path class="st5" d="M255.11,207.68h-28.59c-0.35,0-0.64,0.29-0.64,0.64v4.71c0,0.35,0.29,0.64,0.64,0.64h28.59V207.68z"/>
					</g>
					<path class="st6" d="M255.11,207.68h7.27c0.35,0,0.64,0.29,0.64,0.64v4.71c0,0.35-0.29,0.64-0.64,0.64h-7.27V207.68z"/>
					<path class="st3" d="M257.12,208.57h5.9v4.22h-5.9c-0.46,0-0.84-0.37-0.84-0.84v-2.54
						C256.28,208.94,256.66,208.57,257.12,208.57z"/>
				</g>
				<g>
					<g>
						<path class="st2" d="M258.75,201.5h-28.59c-0.35,0-0.64,0.29-0.64,0.64v4.9c0,0.35,0.29,0.64,0.64,0.64h28.59V201.5z"/>
						<path class="st8" d="M258.75,201.5h-28.59c-0.35,0-0.64,0.29-0.64,0.64v4.9c0,0.35,0.29,0.64,0.64,0.64h28.59V201.5z"/>
					</g>
					<path class="st2" d="M258.75,201.5h7.27c0.35,0,0.64,0.29,0.64,0.64v4.89c0,0.35-0.29,0.64-0.64,0.64h-7.27V201.5z"/>
					<path class="st3" d="M260.76,202.39h5.9v4.41h-5.9c-0.46,0-0.84-0.37-0.84-0.84v-2.73
						C259.92,202.76,260.3,202.39,260.76,202.39z"/>
				</g>
				<g>
					<g>
						<path class="st2" d="M256.37,197.4h-28.59c-0.35,0-0.64,0.29-0.64,0.64v2.82c0,0.35,0.29,0.64,0.64,0.64h28.59V197.4z"/>
						<path class="st9" d="M256.37,197.4h-28.59c-0.35,0-0.64,0.29-0.64,0.64v2.82c0,0.35,0.29,0.64,0.64,0.64h28.59V197.4z"/>
						<path class="st5" d="M256.37,197.4h-28.59c-0.35,0-0.64,0.29-0.64,0.64v2.82c0,0.35,0.29,0.64,0.64,0.64h28.59V197.4z"/>
					</g>
					<g>
						<path class="st2" d="M256.37,197.4h7.27c0.35,0,0.64,0.29,0.64,0.64v2.81c0,0.35-0.29,0.64-0.64,0.64h-7.27V197.4z"/>
						<path class="st9" d="M256.37,197.4h7.27c0.35,0,0.64,0.29,0.64,0.64v2.81c0,0.35-0.29,0.64-0.64,0.64h-7.27V197.4z"/>
					</g>
					<path class="st3" d="M258.38,198.29h5.9v2.32h-5.9c-0.46,0-0.84-0.37-0.84-0.84v-0.65
						C257.54,198.66,257.92,198.29,258.38,198.29z"/>
				</g>
			</g>
		</g>
		<g>
			<g>
				<g>
					<g>
						<g>
							<polygon class="st11" points="106.75,307.14 100.15,303.84 105.51,287.44 112.11,290.75 							"/>
							<path class="st6" d="M100.73,301.26l8.11,1.7c0.29,0.06,0.47,0.31,0.43,0.61l-0.96,6.5c-0.1,0.67-0.86,1.17-1.53,1.02
								c-2.81-0.64-4.12-1.09-7.69-1.84c-2.19-0.46-9.76-1.99-12.68-3c-2.86-0.99-1.84-3.87-0.51-3.71
								c5.96,0.74,11.13,0.08,13.5-1.1C99.82,301.23,100.3,301.17,100.73,301.26z"/>
							<g>
								<polygon class="st5" points="112.11,290.75 105.51,287.45 102.44,296.85 109.35,299.21 								"/>
							</g>
							<g>
								<path class="st2" d="M178.97,208.08c0,0-56.59,5.49-61.32,26.09c-6.81,29.62-16.01,57.75-16.01,57.75l12.66,2.23
									c1.94-8.43,16.38-38.04,23.15-57.93c15.32-2.29,56.31,6.4,62.44-5.25c5.02-9.54,4.9-19.11,4.9-19.11L178.97,208.08z"/>
								<path class="st8" d="M178.97,208.08c0,0-56.59,5.49-61.32,26.09c-6.81,29.62-16.01,57.75-16.01,57.75l12.66,2.23
									c1.94-8.43,16.38-38.04,23.15-57.93c15.32-2.29,56.31,6.4,62.44-5.25c5.02-9.54,4.9-19.11,4.9-19.11L178.97,208.08z"/>
							</g>
							<polygon class="st2" points="115.09,298.63 100.29,293.27 101,287.32 116.49,291.4 							"/>
							<path class="st2" d="M97.91,301.98c0.67,0.14,1.43,0.16,1.98,0.15c0.07,0,0.13-0.04,0.15-0.1c0.03-0.06,0.01-0.13-0.03-0.18
								c-0.2-0.21-1.95-2.03-2.9-1.87c-0.22,0.04-0.39,0.17-0.49,0.39c-0.17,0.36-0.16,0.69,0.02,0.96
								C96.86,301.66,97.35,301.86,97.91,301.98z M99.47,301.78c-1.34-0.01-2.29-0.25-2.55-0.66c-0.11-0.17-0.11-0.37,0.01-0.63
								c0.05-0.12,0.13-0.18,0.24-0.2C97.68,300.21,98.75,301.07,99.47,301.78z"/>
							<path class="st2" d="M99.84,302.12c0.03,0.01,0.05,0,0.08,0c0.06-0.02,0.1-0.06,0.12-0.12c0.03-0.09,0.62-2.13,0.04-2.98
								c-0.16-0.23-0.38-0.36-0.66-0.38c-0.34-0.03-0.6,0.11-0.72,0.38c-0.33,0.75,0.43,2.48,1.06,3.06
								C99.79,302.1,99.81,302.11,99.84,302.12z M99.47,298.99c0.14,0.03,0.25,0.1,0.33,0.22c0.35,0.51,0.16,1.71-0.01,2.39
								c-0.52-0.66-0.99-1.96-0.77-2.45c0.04-0.09,0.12-0.2,0.37-0.18C99.42,298.98,99.45,298.98,99.47,298.99z"/>
						</g>
						<path class="st11" d="M185.1,156.27c-0.34,3.72-0.88,7.22-1.46,10.81c-0.62,3.57-1.34,7.13-2.27,10.7
							c-0.92,3.57-2,7.13-3.52,10.74c-0.77,1.8-1.62,3.63-2.81,5.47c-0.6,0.92-1.27,1.86-2.11,2.79c-0.85,0.93-1.88,1.88-3.28,2.69
							l-0.41,0.24l-0.23,0.08c-2.72,0.97-4.94,0.61-6.73,0.22c-1.81-0.44-3.32-1.13-4.72-1.86c-1.39-0.76-2.66-1.59-3.86-2.5
							c-0.6-0.45-1.16-0.94-1.73-1.43c-0.57-0.49-1.08-0.97-1.66-1.57l3.15-4.55c1.16,0.39,2.43,0.88,3.64,1.24
							c1.21,0.39,2.41,0.74,3.56,1c1.14,0.28,2.25,0.42,3.14,0.44c0.88,0.03,1.52-0.24,1.35-0.31l-0.65,0.32
							c0.25-0.18,1.04-1.06,1.65-2.22c0.64-1.16,1.25-2.55,1.79-4c1.07-2.93,1.92-6.14,2.67-9.4c0.73-3.27,1.36-6.6,1.92-9.96
							c0.57-3.33,1.03-6.8,1.45-10.06L185.1,156.27z"/>
						<g>
							<path class="st6" d="M175.22,150.79c-6.88,6-6.5,20.6-6.5,20.6l18.18,6.55c3.85-6.01,5.74-17.46,5.4-22.38
								C191.77,148.01,183.38,143.67,175.22,150.79z"/>
						</g>
						<path class="st5" d="M192.31,155.85c-3.27-1.57-7.74-1.07-12.16,2.79c-4.01,3.49-5.55,9.92-6.13,14.67l12.88,4.64
							C190.68,172.05,192.57,160.9,192.31,155.85z"/>
						<g>
							<polygon class="st11" points="80.66,289.67 78.47,282.63 93.77,274.33 95.96,281.37 							"/>
							<path class="st6" d="M78.94,281.97l5.55,6.15c0.2,0.22,0.2,0.53-0.01,0.74l-4.6,4.69c-0.48,0.49-1.38,0.44-1.84-0.08
								c-1.9-2.17-2.69-3.31-5.13-6.01c-1.5-1.66-6.77-7.15-8.84-9.45c-2.03-2.25,0.26-4.28,1.34-3.49
								c4.86,3.53,9.73,6.37,12.34,6.82C78.23,281.41,78.65,281.64,78.94,281.97z"/>
							<g>
								<polygon class="st5" points="95.96,281.37 93.76,274.33 82.61,280.39 87.26,286.1 								"/>
							</g>
							<g>
								<path class="st2" d="M191.8,210.15c0,0-38.84,5.2-46.83,15.82c-13.93,18.5-58.02,48.96-58.02,48.96l4.01,12.89
									c0,0,60.05-25.33,70.74-46.51c19.62-1.51,51.55,4.95,56.57-7.23c3.35-8.11,1.7-20.22,1.7-20.22L191.8,210.15z"/>
								<path class="st5" d="M191.8,210.15c0,0-38.84,5.2-46.83,15.82c-13.93,18.5-58.02,48.96-58.02,48.96l4.01,12.89
									c0,0,60.05-25.33,70.74-46.51c19.62-1.51,51.55,4.95,56.57-7.23c3.35-8.11,1.7-20.22,1.7-20.22L191.8,210.15z"/>
							</g>
							<polygon class="st2" points="91.78,289.73 83.24,275.96 88.7,271.47 96.92,286.29 							"/>
							<path class="st2" d="M76.24,280.89c0.46,0.51,1.07,0.97,1.51,1.28c0.06,0.04,0.13,0.04,0.19,0.01
								c0.06-0.04,0.09-0.1,0.08-0.17c-0.04-0.28-0.38-2.79-1.24-3.22c-0.2-0.1-0.42-0.09-0.63,0.03c-0.35,0.2-0.53,0.46-0.55,0.78
								C75.58,280.02,75.86,280.47,76.24,280.89z M77.62,281.66c-1.08-0.8-1.7-1.55-1.68-2.04c0.01-0.2,0.13-0.36,0.37-0.5
								c0.11-0.06,0.21-0.07,0.31-0.02C77.09,279.33,77.45,280.66,77.62,281.66z"/>
							<path class="st2" d="M77.72,282.15c0.02,0.02,0.04,0.04,0.07,0.05c0.06,0.02,0.12,0.01,0.16-0.02
								c0.07-0.05,1.76-1.35,1.79-2.38c0.01-0.28-0.1-0.51-0.31-0.7c-0.26-0.22-0.54-0.26-0.8-0.11c-0.71,0.41-1.12,2.26-0.95,3.1
								C77.69,282.1,77.7,282.12,77.72,282.15z M79.27,279.4c0.1,0.11,0.14,0.23,0.14,0.38c-0.02,0.62-0.88,1.47-1.41,1.93
								c-0.03-0.84,0.35-2.17,0.82-2.44c0.09-0.05,0.22-0.09,0.41,0.08C79.23,279.36,79.25,279.38,79.27,279.4z"/>
						</g>
						<path class="st11" d="M155.39,189.49l-5.87-5.68l-4.08,7.94c0,0,7.14,3.91,8.93,2.12L155.39,189.49z"/>
						<polygon class="st11" points="141.7,183.75 140.64,190.31 145.43,191.76 149.51,183.81 						"/>
						<g>
							<path class="st6" d="M219.62,145.85c-0.75-1.95-2.06-3.89-4.15-3.86c-0.43,0.01-2.98,0.05-3.46,0.06
								c-2.4,0.07-5.4,0.22-8.31,0.59c-5,0.63-12.21,1.72-16.51,2.88c-2.5,0.68-4.9,1.53-6.81,2.26c-0.02,0.01-0.05,0.02-0.07,0.03
								c-2.24,0.88-3.62,3.14-3.4,5.53c1,10.57,3.49,39.92,2.05,55.12l41.02,5.41c2.47-7.83,3.44-25.73,3.46-40.34
								C223.46,164.73,222.67,153.82,219.62,145.85z"/>
						</g>
						<path class="st5" d="M223.24,165.99l-0.81,0.06l-5.2,4.49l-5.37,18.54l-18.48,3.22c4.49,2.27,17.54,2.73,25.27,0.69
							c2.59-0.69,4.4-3.04,4.52-5.72c0.2-4.64,0.29-9.34,0.29-13.74C223.44,171.14,223.39,168.59,223.24,165.99z"/>
						<g>
							<g>
								<path class="st2" d="M156.89,172.04c0,0,3.6-2,10.38-0.05c6.77,1.94,11.53-0.32,11.53-0.32l2.52,4.74l-23.01,0.8
									L156.89,172.04z"/>
								<path class="st12" d="M156.89,172.04c0,0,3.6-2,10.38-0.05c6.77,1.94,11.53-0.32,11.53-0.32l2.52,4.74l-23.01,0.8
									L156.89,172.04z"/>
							</g>
							<g>
								<path class="st2" d="M156.89,172.04c0,0-0.15-1.45-4.52-1.59c-8.79-0.29-12.51-2.54-12.51-2.54l-0.36,2.27l18.81,7.03
									L156.89,172.04z"/>
								<path class="st12" d="M156.89,172.04c0,0-0.15-1.45-4.52-1.59c-8.79-0.29-12.51-2.54-12.51-2.54l-0.36,2.27l18.81,7.03
									L156.89,172.04z"/>
							</g>
							<g>
								<path class="st2" d="M164.28,205.78l-16.24-4.64c-0.4-0.11-0.74-0.46-0.86-0.87l-8.33-30.16c-0.19-0.69,0.33-1.21,1.01-1.02
									l15.51,4.43L164.28,205.78z"/>
								<path class="st2" d="M189.61,207.19l-21.4-1.19l-8.91-32.26l21.65,1.21c0.47,0.03,0.92,0.41,1.06,0.89l8.38,30.32
									C190.55,206.73,190.18,207.22,189.61,207.19z"/>
								<g>
									<polygon class="st2" points="164.28,205.78 168.21,205.99 159.3,173.74 155.37,173.52 									"/>
									<polygon class="st8" points="164.28,205.78 168.21,205.99 159.3,173.74 155.37,173.52 									"/>
								</g>
							</g>
						</g>
						<path class="st11" d="M221.63,153.17c0.21,1.45,0.35,2.66,0.45,3.98c0.1,1.29,0.18,2.58,0.23,3.87
							c0.09,2.58,0.07,5.17-0.09,7.77c-0.31,5.2-1.12,10.47-2.89,15.69c-0.02,0.09-0.18,0.52-0.3,0.83
							c-0.14,0.33-0.3,0.64-0.46,0.94c-0.34,0.59-0.73,1.13-1.13,1.57c-0.81,0.91-1.66,1.56-2.46,2.05
							c-1.62,0.99-3.11,1.5-4.54,1.92c-2.85,0.81-5.51,1.06-8.12,1.23c-5.23,0.27-10.21-0.08-15.28-0.86l0.25-5.53
							c4.69-0.46,9.51-1.06,13.98-1.97c2.23-0.44,4.41-1.04,6.2-1.77c0.88-0.36,1.67-0.79,2.09-1.16c0.21-0.18,0.31-0.32,0.29-0.35
							c0-0.01-0.05,0.01-0.09,0.07c-0.03,0.03-0.05,0.07-0.07,0.11c-0.03,0.02-0.06,0.18-0.02-0.04c0.5-2.08,0.84-4.24,1.1-6.45
							c0.21-2.22,0.36-4.47,0.4-6.76c0.02-2.28,0-4.58-0.11-6.88c-0.05-1.15-0.11-2.3-0.2-3.44l-0.14-1.71l-0.15-1.61L221.63,153.17
							z"/>
						<g>
							<path class="st6" d="M221.63,144.34c-4.87-3.72-11.57-3.6-14.32,6.16c-1.8,6.4-0.83,19.29-0.83,19.29l19.41-0.4
								C228.05,159.16,226.55,148.1,221.63,144.34z"/>
						</g>
						<path class="st11" d="M201.8,126.33l-4.08,4.79l-5.56,6.53c0.34,0.85,0.65,1.71,0.87,2.55c0.96,3.46-2.16,4.17-5.02,5.91
							c0,0-4.27,5.65,5.96,4.02c10.22-1.63,11.74-6.99,11.74-6.99C201.15,139.99,201.48,132.31,201.8,126.33z"/>
						<g>
							<path class="st2" d="M197.12,149.45c-0.94,0.26-1.99,0.51-3.15,0.69c-1.81,0.29-3.16,0.35-4.17,0.25l-0.23,1.18
								c-0.37,0.26-0.46,1.65,1.88,3.3C193.92,154.37,197.75,152.26,197.12,149.45z"/>
							<path class="st6" d="M203.94,141.4c0,0-1.94,5.19-8.98,7.09c1.04,2.75-0.64,5.88-0.64,5.88s9.85-3.38,11.9-6.75
								c2.05-3.37,1.17-5.34,1.17-5.34C206.39,141.79,205.26,141.47,203.94,141.4z"/>
							<path class="st6" d="M190.03,154.14c0,0,0.07-4.29,1.33-5.73c-0.66-1.94-0.31-2.97,0.7-4.69c-1.53,0.41-3.92,1.21-5.3,3.46
								S186.32,154.19,190.03,154.14z"/>
						</g>
						<path class="st5" d="M192.16,137.65c0.34,0.85,0.65,1.71,0.87,2.55c2.34-0.91,5.13-4.06,5.03-6.59
							c-0.04-0.95-0.17-1.86-0.35-2.49L192.16,137.65z"/>
						<path class="st6" d="M178.61,114.85c-1.93,4.05-0.27,13.67,8.88,9.84C196.63,120.87,181.75,108.27,178.61,114.85z"/>
						<path class="st6" d="M198.69,123.26c-0.84,1.75-0.12,5.9,3.83,4.25C206.47,125.86,200.04,120.42,198.69,123.26z"/>
						<path class="st6" d="M199.8,126.06c-1.28,1.46-1.7,5.65,2.55,5.13C206.6,130.66,201.87,123.69,199.8,126.06z"/>
						<path class="st11" d="M200.8,115.14c1.66,7.75,3.02,12.19,0.31,17.29c-4.07,7.68-14.33,7.14-18.24,0.12
							c-3.52-6.32-5.65-17.93,0.87-23.29C190.16,103.98,199.14,107.39,200.8,115.14z"/>
						<path class="st6" d="M199.42,106.12c-1.59-6.87-10.81-4.48-15.51-0.32c-4.78,4.23-5.9,7.43-9.87,9.88
							c7.32,0.97,17.67-1.89,19.61-4.36c-0.22,2.51,1.7,5.38,3.15,6.26c-0.24,2.16,0.02,6.47,0.02,6.47l3.34-1.7l3.89-1.56
							C209.78,111.1,206.39,105.11,199.42,106.12z"/>
						<path class="st13" d="M191.09,120.47c-0.13,0-0.24-0.09-0.26-0.22c-0.02-0.14,0.07-0.28,0.22-0.31l10.84-1.85
							c0.15-0.03,0.28,0.07,0.31,0.22c0.02,0.14-0.07,0.28-0.22,0.31l-10.84,1.85C191.12,120.47,191.1,120.47,191.09,120.47z"/>
						<path class="st13" d="M189.64,126.9c-0.01,0-0.01,0-0.02,0c-2-0.01-4.21-2.15-4.91-4.76c-0.42-1.55-0.25-2.97,0.46-3.89
							c0.48-0.63,1.16-0.96,1.97-0.96c0.01,0,0.01,0,0.02,0c2,0.01,4.21,2.15,4.91,4.76l0,0c0.42,1.55,0.25,2.97-0.46,3.89
							C191.13,126.57,190.45,126.9,189.64,126.9z M187.13,117.82c-0.64,0-1.17,0.26-1.55,0.75c-0.6,0.78-0.74,2.06-0.37,3.43
							c0.65,2.4,2.63,4.36,4.41,4.37c0.65,0.02,1.19-0.25,1.57-0.75c0.6-0.78,0.74-2.06,0.37-3.43c-0.65-2.4-2.63-4.36-4.41-4.37
							C187.14,117.82,187.14,117.82,187.13,117.82z"/>
						<path class="st13" d="M183.45,123.66c-0.05,0-0.1-0.01-0.14-0.04c-0.12-0.08-0.16-0.24-0.09-0.36
							c0.63-1.03,1.98-0.74,2.04-0.73c0.14,0.03,0.23,0.17,0.2,0.31c-0.03,0.14-0.17,0.23-0.32,0.2c-0.01,0-1.04-0.22-1.47,0.49
							C183.62,123.62,183.53,123.66,183.45,123.66z"/>
						<path class="st11" d="M205.45,121.07c-0.5,2.16-1.85,3.92-3.29,4.91c-2.17,1.48-3.86-0.36-3.78-2.94
							c0.08-2.32,1.3-5.88,3.73-6.33C204.49,116.27,206.02,118.6,205.45,121.07z"/>
						<path class="st6" d="M188.44,121.65c0.29,0.58,0.22,1.2-0.15,1.4c-0.37,0.2-0.9-0.1-1.19-0.68c-0.29-0.58-0.22-1.2,0.15-1.4
							C187.62,120.77,188.15,121.07,188.44,121.65z"/>
						<path class="st6" d="M182.1,124.25c0.25,0.59,0.15,1.21-0.23,1.39c-0.38,0.18-0.89-0.15-1.15-0.74
							c-0.25-0.59-0.15-1.21,0.23-1.39C181.34,123.32,181.85,123.66,182.1,124.25z"/>
						<path class="st6" d="M178.9,120.72c0.12-0.03,0.21-0.12,0.25-0.25c0.53-1.63,1.87-2.05,1.88-2.05
							c0.2-0.06,0.31-0.27,0.25-0.47c-0.06-0.2-0.27-0.31-0.47-0.25c0,0,0,0,0,0c-0.07,0.02-1.74,0.54-2.39,2.54
							c-0.06,0.2,0.04,0.41,0.24,0.48C178.76,120.74,178.83,120.74,178.9,120.72z"/>
						<path class="st13" d="M181.93,128.96c-0.01,0-0.01,0-0.02,0c-1.83-0.01-3.84-1.96-4.49-4.34c-0.38-1.41-0.23-2.71,0.42-3.56
							c0.44-0.57,1.07-0.88,1.81-0.88c0.01,0,0.01,0,0.02,0c1.83,0.01,3.84,1.96,4.49,4.34l0,0c0.38,1.41,0.23,2.71-0.42,3.56
							C183.3,128.66,182.67,128.96,181.93,128.96z M179.65,120.71c-0.57,0-1.05,0.23-1.39,0.67c-0.54,0.7-0.66,1.86-0.33,3.1
							c0.59,2.17,2.38,3.94,3.98,3.95c0,0,0.01,0,0.01,0c0.57,0,1.05-0.23,1.39-0.67c0.54-0.7,0.67-1.86,0.33-3.1l0,0
							c-0.59-2.17-2.38-3.94-3.98-3.95C179.66,120.71,179.66,120.71,179.65,120.71z"/>
						<path class="st14" d="M184.2,123.32c0,0-0.11,3.43-0.87,5.37c1.2,0.5,2.6-0.49,2.6-0.49L184.2,123.32z"/>
						<path class="st6" d="M187.22,130.5c2.43-0.72,3.33-2.63,3.37-2.72c0.04-0.09,0-0.21-0.09-0.25c-0.09-0.04-0.21,0-0.25,0.09
							c-0.01,0.02-1.04,2.2-3.83,2.68c-0.1,0.02-0.17,0.12-0.15,0.22c0.02,0.1,0.11,0.17,0.22,0.15
							C186.75,130.63,186.99,130.57,187.22,130.5z"/>
						<path class="st6" d="M189.36,116.97c0.05-0.03,0.1-0.08,0.13-0.13c0.11-0.18,0.05-0.41-0.13-0.52
							c-1.78-1.04-3.34-0.25-3.4-0.21c-0.18,0.07-0.26,0.32-0.16,0.51c0.1,0.18,0.32,0.25,0.51,0.16c0.06-0.03,1.27-0.63,2.67,0.2
							C189.1,117.04,189.24,117.04,189.36,116.97z"/>
						<path class="st11" d="M189.27,186.99l-6.27-2.65l0.21,7.96c0,0,6.21,2.52,7.24-0.8L189.27,186.99z"/>
						<polygon class="st11" points="175.21,186.13 176.59,191.82 183.22,192.31 183.01,184.34 						"/>
					</g>
				</g>
			</g>
		</g>
	</g>
</g>
</svg>
