<?xml version="1.0" encoding="utf-8"?>
<!-- Generator: Adobe Illustrator 26.0.1, SVG Export Plug-In . SVG Version: 6.00 Build 0)  -->
<svg version="1.1" xmlns="http://www.w3.org/2000/svg" xmlns:xlink="http://www.w3.org/1999/xlink" x="0px" y="0px"
	 viewBox="0 0 500 500" style="enable-background:new 0 0 500 500;" xml:space="preserve">
<style type="text/css">
	.st0{display:none;}
	.st1{display:inline;}
	.st2{fill:#407BFF;}
	.st3{opacity:0.9;fill:#FFFFFF;}
	.st4{fill:#363636;}
	.st5{fill:#EFC0C1;}
	.st6{fill:#FFFFFF;}
	.st7{fill:#F5DADA;}
	.st8{fill:#E27878;}
	.st9{fill:#4E4E4E;}
	.st10{fill:#F5F5F5;}
	.st11{opacity:0.2;}
	.st12{fill:#263238;}
	.st13{opacity:0.3;fill:#407BFF;}
	.st14{opacity:0.3;}
	.st15{opacity:0.3;fill:#FFFFFF;}
	.st16{opacity:0.4;fill:#263238;}
</style>
<g id="Background_Complete">
</g>
<g id="Background_Simple" class="st0">
	<g class="st1">
		<path class="st2" d="M400.85,198.24c17.23,18.33,27.76,43.21,25.85,68.19c-2.44,31.81-27.79,64.47-61.73,63.11
			c-14.85-0.59-29.02-6.01-43.03-10.96c-21.14-7.48-42.75-14.09-65.02-16.74c-21.19-2.52-42.36,3.42-63.24,6.43
			c-17.79,2.56-36.2,3.65-53.51-1.2c-40.74-11.42-68.41-62.19-67.04-102.47c1.52-44.58,32.59-82.92,76.74-91.17
			c20.81-3.89,42.9-0.59,61.68,9.2c24,12.52,45.1,40.77,74.26,41.23c18.64,0.29,33.8-3.64,52.51,0.54
			c19.4,4.33,38.09,12.56,53.46,25.3C394.96,192.36,398,195.21,400.85,198.24z"/>
		<path class="st3" d="M400.85,198.24c17.23,18.33,27.76,43.21,25.85,68.19c-2.44,31.81-27.79,64.47-61.73,63.11
			c-14.85-0.59-29.02-6.01-43.03-10.96c-21.14-7.48-42.75-14.09-65.02-16.74c-21.19-2.52-42.36,3.42-63.24,6.43
			c-17.79,2.56-36.2,3.65-53.51-1.2c-40.74-11.42-68.41-62.19-67.04-102.47c1.52-44.58,32.59-82.92,76.74-91.17
			c20.81-3.89,42.9-0.59,61.68,9.2c24,12.52,45.1,40.77,74.26,41.23c18.64,0.29,33.8-3.64,52.51,0.54
			c19.4,4.33,38.09,12.56,53.46,25.3C394.96,192.36,398,195.21,400.85,198.24z"/>
	</g>
</g>
<g id="Shadow_1_">
</g>
<g id="Books">
	<g>
		<g>
			<g>
				
					<ellipse transform="matrix(0.9999 -0.0135 0.0135 0.9999 -2.1267 3.5721)" class="st2" cx="262.59" cy="158.75" rx="97.06" ry="97.06"/>
				<g>
					<g>
						<g>
							<path class="st2" d="M89.2,164.02l49.05-66.62h27.75v66.62h9.32v15.94h-9.32v22.66h-27.75v-22.66H89.2V164.02z
								 M138.24,164.02v-32.86l-22.92,32.86H138.24z"/>
							<path class="st2" d="M348.72,164.02l49.04-66.62h27.75v66.62h9.88v15.94h-9.88v22.66h-27.75v-22.66h-49.04V164.02z
								 M397.76,164.02v-32.86l-22.92,32.86H397.76z"/>
						</g>
					</g>
				</g>
			</g>
			<g>
				<g>
					<g>
						<g>
							<path class="st4" d="M334.2,84.5c-8.55-3.64-24.33-2.42-30.95,15.87l33.43,25.3C352.22,115.81,351.35,92.11,334.2,84.5z
								 M328.24,113.25l-11.7-8.85c2.32-6.4,7.84-6.83,10.83-5.55C333.37,101.51,333.67,109.8,328.24,113.25z"/>
						</g>
						<g>
							<path class="st5" d="M327.37,98.85c-2.99-1.27-8.51-0.85-10.83,5.55l11.7,8.85C333.67,109.8,333.37,101.51,327.37,98.85z"/>
						</g>
						<g>
							<path class="st4" d="M191.68,84.5c-17.15,7.6-18.01,31.3-2.48,41.18l33.44-25.3C216.01,82.08,200.23,80.86,191.68,84.5z
								 M197.65,113.25c-5.43-3.46-5.13-11.75,0.87-14.41c2.99-1.27,8.51-0.85,10.83,5.55L197.65,113.25z"/>
						</g>
						<g>
							<path class="st5" d="M198.52,98.85c-6,2.66-6.3,10.95-0.87,14.41l11.7-8.85C207.03,98,201.51,97.57,198.52,98.85z"/>
						</g>
					</g>
					<g>
						<path class="st6" d="M307.18,183.21c17.21-12.9,34.22-8.4,43.48-4.1c0.95-6.77,8.43-88.76-87.7-88.76v0c-0.02,0-0.03,0-0.05,0
							c-0.02,0-0.03,0-0.05,0v0c-95.01,0-88.66,81.99-87.71,88.76c9.26-4.3,26.27-8.8,43.48,4.1
							c17.31,12.98,16.83,32.33,14.73,43.44c9.53,1.71,19.54,2.49,29.5,2.54c0.02,0,0.03,0,0.05,0c0.02,0,0.03,0,0.05,0
							c9.95-0.05,19.97-0.83,29.5-2.54C290.36,215.54,289.87,196.18,307.18,183.21z M263.04,175.19c-1.98,0-5.25-2.91-5.62-5.58
							c-0.49-3.15,3.64-3.4,5.95-3.52C273.19,166.07,266.27,175.19,263.04,175.19z"/>
						<path class="st4" d="M263.36,166.1c-2.31,0.12-6.43,0.36-5.95,3.52c0.36,2.67,3.64,5.58,5.62,5.58
							C266.27,175.19,273.19,166.07,263.36,166.1z"/>
						<path class="st6" d="M218.63,183.21c-17.21-12.9-34.22-8.4-43.48-4.1c3.96,28.19,28.76,42.27,58.21,47.54
							C235.46,215.54,235.94,196.18,218.63,183.21z"/>
						<path class="st6" d="M350.66,179.11c-9.26-4.3-26.27-8.8-43.48,4.1c-17.31,12.98-16.83,32.33-14.73,43.44
							C321.9,221.38,346.7,207.3,350.66,179.11z"/>
					</g>
					<path class="st7" d="M218.63,183.21c-17.21-12.9-34.22-8.4-43.48-4.1c3.96,28.19,28.76,42.27,58.21,47.54
						C235.46,215.54,235.94,196.18,218.63,183.21z"/>
					<g>
						<path class="st8" d="M247.97,208.34c1.55,5.47,7.65,9.56,14.94,9.56c4.92,0,9.29-1.86,12.09-4.74
							C267.79,207.2,255.68,204.94,247.97,208.34z"/>
						<path class="st4" d="M278.23,205.6c0-6.79-6.86-12.29-15.32-12.29c-8.46,0-15.32,5.5-15.32,12.29c0,0.94,0.14,1.85,0.38,2.73
							c7.72-3.39,19.83-1.13,27.03,4.82C277.02,211.07,278.23,208.45,278.23,205.6z"/>
					</g>
					<path class="st7" d="M350.66,179.11c-9.26-4.3-26.27-8.8-43.48,4.1c-17.31,12.98-16.83,32.33-14.73,43.44
						C321.9,221.38,346.7,207.3,350.66,179.11z"/>
					<g>
						<g>
							<path class="st4" d="M249.89,141.94c5.9,8.26-0.19,22.72-13.6,32.29c-13.41,9.57-29.06,10.64-34.96,2.38
								c-5.89-8.26,0.19-22.72,13.61-32.29C228.35,134.75,244,133.68,249.89,141.94z"/>
							<path class="st4" d="M275.92,141.94c-5.9,8.26,0.19,22.72,13.6,32.29c13.41,9.57,29.06,10.64,34.96,2.38
								c5.9-8.26-0.19-22.72-13.6-32.29C297.46,134.75,281.81,133.68,275.92,141.94z"/>
						</g>
						<g>
							<path class="st6" d="M292.31,153.01c-3.17,0-5.74,2.57-5.74,5.75c0,3.17,2.57,5.75,5.74,5.75c3.17,0,5.75-2.57,5.75-5.75
								C298.05,155.58,295.48,153.01,292.31,153.01z M292.31,160.27c-0.84,0-1.52-0.68-1.52-1.52c0-0.84,0.68-1.52,1.52-1.52
								c0.84,0,1.52,0.68,1.52,1.52C293.83,159.59,293.15,160.27,292.31,160.27z"/>
							<path class="st6" d="M233.5,153.01c-3.17,0-5.75,2.57-5.75,5.75c0,3.17,2.57,5.75,5.75,5.75c3.17,0,5.74-2.57,5.74-5.75
								C239.24,155.58,236.67,153.01,233.5,153.01z M233.5,160.27c-0.84,0-1.52-0.68-1.52-1.52c0-0.84,0.68-1.52,1.52-1.52
								c0.84,0,1.52,0.68,1.52,1.52C235.02,159.59,234.34,160.27,233.5,160.27z"/>
						</g>
					</g>
				</g>
				<g>
					<path class="st9" d="M331.49,87.75c6.67,1.83,11.68,8.41,11.67,15.08c0,3.68-3.46,5.51-7.86-4.52
						c-3.29-7.5-11.97-7.37-10.89-9.42C325.27,87.25,329.02,87.07,331.49,87.75z"/>
				</g>
				<g>
					<path class="st9" d="M194.4,87.75c-6.67,1.83-11.68,8.41-11.68,15.08c0,3.68,3.46,5.51,7.86-4.52
						c3.29-7.5,11.97-7.37,10.89-9.42C200.61,87.25,196.86,87.07,194.4,87.75z"/>
				</g>
			</g>
		</g>
		
			<ellipse id="_x3C_Path_x3E__00000003102520243898942780000010274128321464027323_" class="st10" cx="250" cy="426.98" rx="193.89" ry="11.32"/>
		<g>
			<g>
				<g>
					<g>
						<path class="st2" d="M192.04,377.1h199.93c2.14,0,3.88,1.74,3.88,3.88v42.38c0,2.14-1.74,3.88-3.88,3.88H192.04V377.1z"/>
						<path class="st11" d="M192.04,377.1h199.93c2.14,0,3.88,1.74,3.88,3.88v42.38c0,2.14-1.74,3.88-3.88,3.88H192.04V377.1z"/>
					</g>
					
						<rect x="241.06" y="377.1" transform="matrix(-1 -1.224647e-16 1.224647e-16 -1 512.7094 804.3362)" class="st11" width="30.59" height="50.14"/>
					
						<rect x="284.79" y="377.1" transform="matrix(-1 -1.224647e-16 1.224647e-16 -1 585.0997 804.3362)" class="st11" width="15.51" height="50.14"/>
					<path class="st2" d="M192.04,377.1h-66.22c-2.15,0-3.9,1.75-3.9,3.9v42.34c0,2.15,1.75,3.9,3.9,3.9h66.22V377.1z"/>
					<path class="st3" d="M179.85,382.49h-57.93v39.36h57.93c2.81,0,5.09-2.28,5.09-5.09v-29.19
						C184.93,384.76,182.66,382.49,179.85,382.49z"/>
					<circle class="st11" cx="367.85" cy="402.17" r="14.34"/>
				</g>
				<g>
					<g>
						<path class="st12" d="M206.51,340.71h199.94c2.14,0,3.88,1.74,3.88,3.88v28.64c0,2.14-1.74,3.88-3.88,3.88H206.51V340.71z"/>
						<path class="st11" d="M206.51,340.71h199.94c2.14,0,3.88,1.74,3.88,3.88v28.64c0,2.14-1.74,3.88-3.88,3.88H206.51V340.71z"/>
					</g>
					<path class="st12" d="M206.51,340.71h-66.22c-2.15,0-3.9,1.75-3.9,3.9v28.59c0,2.15,1.75,3.9,3.9,3.9h66.22V340.71z"/>
					<path class="st3" d="M194.31,346.09h-57.93v25.62h57.93c2.81,0,5.09-2.28,5.09-5.09v-15.45
						C199.4,348.37,197.12,346.09,194.31,346.09z"/>
					<g>
						<path class="st13" d="M248.38,368.48h139.9c2.32,0,4.19-1.88,4.19-4.19v-10.77c0-2.32-1.88-4.19-4.19-4.19h-139.9
							c-2.32,0-4.19,1.88-4.19,4.19v10.77C244.18,366.6,246.06,368.48,248.38,368.48z"/>
						
							<rect x="214.1" y="340.71" transform="matrix(-1 -1.224647e-16 1.224647e-16 -1 433.5059 717.8057)" class="st13" width="5.31" height="36.39"/>
						
							<rect x="223.8" y="340.71" transform="matrix(-1 -1.224647e-16 1.224647e-16 -1 452.8961 717.8057)" class="st13" width="5.31" height="36.39"/>
					</g>
				</g>
				<g>
					<g>
						<path class="st2" d="M184.4,303.16h199.94c2.14,0,3.88,1.74,3.88,3.88v29.79c0,2.14-1.74,3.88-3.88,3.88H184.4V303.16z"/>
						<path class="st14" d="M184.4,303.16h199.94c2.14,0,3.88,1.74,3.88,3.88v29.79c0,2.14-1.74,3.88-3.88,3.88H184.4V303.16z"/>
					</g>
					
						<rect x="233.41" y="303.16" transform="matrix(-1 -1.224647e-16 1.224647e-16 -1 536.2396 643.8691)" class="st3" width="69.42" height="37.54"/>
					
						<rect x="332.65" y="303.16" transform="matrix(-1 -1.224647e-16 1.224647e-16 -1 700.5001 643.8691)" class="st3" width="35.2" height="37.54"/>
					<path class="st2" d="M184.4,303.16h-66.22c-2.15,0-3.9,1.75-3.9,3.9v29.74c0,2.15,1.75,3.9,3.9,3.9h66.22V303.16z"/>
					<path class="st3" d="M172.2,308.55h-57.93v26.77h57.93c2.81,0,5.09-2.28,5.09-5.09v-16.59
						C177.29,310.83,175.01,308.55,172.2,308.55z"/>
				</g>
				<g>
					<g>
						<path class="st2" d="M198.86,278.26h199.93c2.14,0,3.88,1.74,3.88,3.88v17.14c0,2.14-1.74,3.88-3.88,3.88H198.86V278.26z"/>
						<path class="st15" d="M198.86,278.26h199.93c2.14,0,3.88,1.74,3.88,3.88v17.14c0,2.14-1.74,3.88-3.88,3.88H198.86V278.26z"/>
						<path class="st11" d="M198.86,278.26h199.93c2.14,0,3.88,1.74,3.88,3.88v17.14c0,2.14-1.74,3.88-3.88,3.88H198.86V278.26z"/>
					</g>
					<g>
						<path class="st2" d="M198.86,278.26h-66.22c-2.15,0-3.9,1.75-3.9,3.9v17.1c0,2.15,1.75,3.9,3.9,3.9h66.22V278.26z"/>
						<path class="st15" d="M198.86,278.26h-66.22c-2.15,0-3.9,1.75-3.9,3.9v17.1c0,2.15,1.75,3.9,3.9,3.9h66.22V278.26z"/>
					</g>
					<path class="st3" d="M186.66,283.65h-57.93v14.13h57.93c2.81,0,5.09-2.28,5.09-5.09v-3.95
						C191.75,285.93,189.47,283.65,186.66,283.65z"/>
					
						<rect x="216.75" y="284.83" transform="matrix(-1 -1.224647e-16 1.224647e-16 -1 524.1286 581.4286)" class="st16" width="90.62" height="11.77"/>
				</g>
			</g>
		</g>
	</g>
</g>
<g id="Character_1_">
</g>
</svg>
